<?xml version="1.0" standalone="no"?>
<!DOCTYPE svg PUBLIC "-//W3C//DTD SVG 20010904//EN"
 "http://www.w3.org/TR/2001/REC-SVG-20010904/DTD/svg10.dtd">
<svg version="1.0" xmlns="http://www.w3.org/2000/svg"
 width="500.000000pt" height="500.000000pt" viewBox="0 0 500.000000 500.000000"
 preserveAspectRatio="xMidYMid meet">
<metadata>
Created by potrace 1.14, written by Peter Selinger 2001-2017
</metadata>
<g transform="translate(0.000000,500.000000) scale(0.100000,-0.100000)"
fill="#000000" stroke="none">
<path d="M1963 4973 c-7 -15 -13 -35 -13 -44 0 -10 -19 -37 -42 -61 -24 -24
-52 -60 -63 -81 -19 -36 -35 -48 -35 -27 0 15 -58 48 -105 61 -49 13 -136 62
-180 100 l-32 29 -19 -21 c-19 -21 -19 -22 20 -55 54 -47 132 -89 199 -109 41
-12 63 -25 78 -46 12 -17 18 -33 14 -37 -16 -16 -175 -2 -199 17 -7 6 -21 12
-32 14 -42 8 -80 20 -92 30 -7 5 -31 13 -55 18 -56 10 -124 -19 -166 -71 -36
-45 -37 -51 -13 -73 16 -14 20 -13 54 12 21 16 35 31 32 34 -3 3 9 13 26 22
71 37 147 -26 90 -73 -20 -17 -24 -36 -35 -202 -2 -41 -9 -112 -14 -157 -10
-80 -11 -84 -56 -126 -25 -24 -47 -42 -49 -40 -2 2 -8 -3 -15 -11 -10 -11 -6
-18 20 -37 l32 -23 23 27 22 26 -3 -102 c-2 -56 -4 -110 -4 -119 -2 -39 -24
-46 -108 -32 -83 13 -95 11 -87 -10 3 -8 1 -17 -5 -20 -5 -4 -7 -29 -4 -60 6
-54 5 -55 -28 -75 -19 -12 -40 -19 -46 -16 -18 6 -86 -16 -171 -55 -65 -31
-73 -37 -70 -60 4 -31 28 -37 69 -16 17 9 35 14 39 11 3 -2 48 12 100 31 51
19 94 33 96 31 5 -4 -47 -59 -114 -120 -28 -26 -52 -52 -52 -57 0 -5 -6 -13
-13 -17 -8 -4 -22 -21 -32 -36 -17 -26 -17 -29 -1 -45 19 -20 42 -10 66 30 17
29 170 175 170 163 0 -5 12 2 27 16 21 19 25 20 20 6 -4 -10 -7 -25 -7 -33 0
-9 -4 -12 -10 -9 -5 3 -10 2 -10 -3 0 -15 -81 -92 -91 -87 -9 6 -31 -29 -24
-37 3 -3 -6 -15 -20 -28 -14 -13 -25 -30 -25 -38 0 -23 -71 -104 -86 -98 -26
10 -26 -16 0 -42 21 -22 30 -25 44 -16 22 14 131 147 126 155 -2 3 20 28 47
55 28 27 62 68 76 92 14 23 27 42 29 42 2 0 -5 -24 -17 -52 -11 -29 -22 -63
-23 -75 -2 -12 -17 -38 -34 -58 -18 -19 -39 -49 -47 -65 -9 -17 -20 -30 -25
-30 -5 0 -12 -11 -16 -25 -3 -14 -15 -32 -26 -40 -18 -12 -19 -18 -10 -43 7
-20 7 -45 1 -72 -5 -24 -8 -48 -6 -54 3 -6 8 3 12 19 13 59 15 60 31 36 15
-20 15 -24 0 -40 -9 -10 -16 -26 -16 -37 0 -10 -6 -31 -14 -45 -17 -33 -39
-125 -33 -136 3 -5 2 -28 -3 -52 -10 -54 -5 -69 23 -73 18 -2 23 -12 28 -45 3
-24 2 -43 -3 -43 -4 0 -8 -11 -8 -24 0 -14 -4 -36 -9 -49 -6 -14 -12 -67 -15
-119 -4 -51 -9 -114 -12 -139 -4 -33 -1 -56 11 -79 15 -28 29 -204 26 -327 -1
-18 10 -65 22 -105 13 -40 23 -91 22 -113 -1 -22 1 -51 5 -65 5 -14 18 -61 30
-105 13 -44 35 -103 50 -130 15 -28 31 -66 35 -85 10 -51 110 -245 164 -320
25 -35 53 -76 62 -90 21 -33 171 -184 235 -237 98 -81 251 -169 309 -179 23
-3 82 -23 107 -35 16 -8 106 -26 253 -50 53 -8 152 -7 364 5 35 2 66 7 70 12
14 19 73 45 125 55 31 5 84 24 118 41 33 16 72 31 85 33 14 1 30 8 36 15 9 10
9 11 -2 5 -9 -5 -12 -4 -7 3 4 6 12 9 19 6 8 -2 33 11 58 31 24 19 49 35 54
35 13 1 65 47 65 58 0 13 123 140 139 144 18 4 101 103 101 121 0 7 7 22 15
33 8 10 15 27 15 37 0 10 14 38 30 62 17 24 30 49 30 55 0 6 13 23 28 38 16
15 41 56 57 92 15 36 34 72 41 80 7 9 15 31 18 50 2 19 11 54 20 78 8 23 12
50 9 59 -5 12 -3 14 7 8 10 -6 12 -4 6 10 -4 10 2 35 13 59 11 23 22 70 25
106 10 118 17 171 27 196 5 14 9 38 9 54 0 16 6 41 12 57 8 17 13 81 14 163 1
74 2 142 3 150 3 45 -10 295 -17 304 -4 6 -9 37 -11 70 -2 32 -7 72 -12 88
-17 60 6 15 32 -60 17 -50 32 -78 42 -80 12 -3 17 3 17 20 0 39 -39 166 -72
237 -17 36 -33 86 -36 111 -5 52 9 46 27 -11 7 -21 43 -91 81 -157 38 -67 72
-137 76 -157 6 -36 50 -135 59 -135 2 0 15 5 29 11 24 11 24 11 6 43 -10 17
-22 49 -25 71 -4 22 -23 69 -43 105 -94 175 -124 234 -132 261 -8 28 -5 26 66
-32 42 -34 80 -73 85 -87 5 -14 23 -42 40 -64 25 -31 34 -36 45 -27 20 17 18
27 -16 66 -16 18 -30 40 -30 47 0 16 -57 76 -107 112 -21 15 -48 39 -61 53
-35 40 -67 85 -54 77 17 -10 16 23 -1 43 -15 17 -47 94 -47 112 0 6 4 8 9 5
12 -8 31 64 37 137 2 34 9 64 14 65 6 2 10 27 9 55 l-1 52 -8 -42 c-5 -23 -13
-51 -19 -61 -5 -10 -12 -45 -15 -78 -9 -118 -32 -144 -61 -71 -25 63 -79 141
-140 201 -47 48 -60 69 -86 144 -17 48 -36 96 -43 107 -7 11 -15 31 -19 45 -5
20 2 16 35 -22 22 -27 44 -48 49 -48 15 0 -4 28 -65 100 -66 77 -79 126 -18
68 20 -20 48 -41 61 -48 21 -11 26 -10 42 11 18 25 17 39 -5 39 -8 0 -19 7
-26 15 -11 13 -7 15 28 15 23 0 52 -5 66 -11 35 -17 55 -6 48 26 -4 22 -19 33
-88 66 -47 21 -87 39 -89 39 -3 0 -43 18 -89 41 -99 48 -97 44 -91 212 3 61 0
119 -6 135 -6 15 -14 56 -18 91 l-8 63 36 15 c75 30 102 45 108 59 9 25 -1 25
-75 0 l-71 -23 -8 41 c-4 23 -7 48 -8 56 0 8 -3 20 -6 25 -4 6 -10 25 -14 43
-13 60 -27 36 -21 -35 13 -156 14 -148 -19 -145 -17 2 -39 10 -50 18 -11 8
-30 21 -42 30 -11 8 -38 17 -60 18 -21 2 -40 4 -42 5 -2 1 4 10 14 21 16 17
19 18 40 4 17 -11 36 -13 74 -8 28 4 51 11 51 16 0 6 -20 7 -49 3 -31 -4 -57
-2 -71 5 -17 9 -25 8 -39 -4 -16 -15 -19 -15 -31 -1 -10 13 -9 15 9 15 38 0
26 35 -16 46 -35 8 -38 13 -49 61 -13 57 -13 57 34 96 19 15 29 27 23 27 -6 0
-28 -16 -50 -35 -21 -19 -43 -35 -49 -35 -5 0 -13 -7 -16 -16 -5 -14 -4 -15 8
-5 11 9 15 6 20 -16 4 -16 9 -36 12 -45 3 -10 1 -18 -5 -18 -15 0 -58 91 -53
113 2 9 -1 17 -7 17 -12 0 -13 -6 -15 -63 -1 -24 3 -36 11 -33 6 3 14 -2 17
-10 20 -53 -26 -33 -52 22 -12 24 -26 44 -31 44 -20 0 -22 -22 -6 -47 17 -25
17 -27 -1 -41 -18 -13 -18 -14 3 -8 24 8 41 -10 24 -27 -9 -9 -19 -12 -64 -16
-5 -1 -5 -5 -2 -11 3 -5 -1 -10 -9 -10 -9 0 -17 7 -17 15 -1 8 -2 20 -3 27 -1
7 10 16 24 20 19 6 16 6 -10 3 l-36 -5 -17 62 c-30 104 -33 112 -43 115 -6 2
-8 -28 -6 -74 3 -78 3 -78 -15 -52 -10 15 -36 50 -58 78 -36 47 -42 51 -82 51
l-44 0 14 -27 c8 -16 19 -71 26 -124 19 -142 21 -140 -149 -138 -115 2 -144
-1 -193 -19 -32 -11 -57 -18 -55 -14 35 78 134 272 149 293 l20 29 -69 0 c-67
0 -71 -1 -100 -34 -17 -19 -33 -44 -37 -55 -3 -12 -10 -19 -14 -17 -4 3 -7 -3
-7 -12 2 -42 -28 -192 -40 -196 -21 -8 -54 6 -54 23 0 9 -5 23 -10 31 -9 13
-11 13 -19 1 -5 -8 -7 -20 -4 -28 10 -25 -15 -41 -50 -33 -62 15 -67 19 -63
58 4 33 30 99 45 112 4 3 15 31 24 63 10 31 22 57 28 57 5 0 9 7 9 15 0 25
-34 17 -47 -12z m292 -74 c-8 -28 -20 -56 -28 -62 -8 -7 -22 -25 -31 -42 -15
-29 -15 -29 -16 -6 0 30 35 107 63 139 11 12 22 22 23 22 1 0 -4 -23 -11 -51z
m452 -52 c8 -16 13 -30 11 -32 -5 -6 -68 54 -68 65 0 4 -3 17 -7 27 -10 27 45
-25 64 -60z m102 -51 c-13 -14 -17 -5 -24 44 l-5 45 19 -40 c10 -23 15 -44 10
-49z m-925 -34 c-4 -18 -10 -29 -15 -26 -5 3 -9 -2 -9 -10 0 -9 -4 -16 -10
-16 -5 0 -10 9 -10 20 0 11 5 20 10 20 6 0 16 11 22 25 15 32 20 27 12 -13z
m1217 -55 c-17 -18 -21 -18 -21 -5 0 8 -7 29 -15 44 -26 50 -16 58 21 20 l37
-38 -22 -21z m-279 51 c-10 -10 -15 -10 -22 2 -6 9 -5 17 3 22 18 11 33 -10
19 -24z m211 11 c4 -16 3 -18 -9 -8 -16 13 -19 29 -5 29 5 0 11 -9 14 -21z
m-19 -52 c34 -46 29 -67 -17 -67 -19 0 -48 -3 -65 -6 -28 -6 -31 -3 -42 32 -7
21 -9 39 -4 41 5 2 27 14 49 27 22 12 42 20 46 17 3 -3 18 -23 33 -44z m-141
-47 c8 -22 12 -40 7 -40 -12 0 -50 50 -50 66 0 29 28 12 43 -26z m372 -30 c28
-31 76 -51 105 -45 l26 6 0 -156 c0 -85 -4 -155 -9 -155 -5 0 -35 23 -68 52
-45 40 -60 61 -65 88 -3 19 -16 53 -29 75 -21 37 -39 138 -27 150 12 12 50 3
67 -15z m-1601 -89 c49 -50 43 -67 -24 -76 -29 -4 -64 -13 -78 -21 -23 -12
-27 -12 -30 1 -2 7 1 22 7 33 5 10 11 46 12 79 l2 60 36 -18 c20 -10 53 -35
75 -58z m178 36 c14 -22 2 -32 -33 -29 -41 5 -40 3 -32 31 5 18 10 21 32 16
14 -4 29 -12 33 -18z m-92 -8 c0 -6 -4 -7 -10 -4 -5 3 -10 11 -10 16 0 6 5 7
10 4 6 -3 10 -11 10 -16z m1263 10 c20 -1 20 -2 -3 -9 -38 -12 -47 -11 -47 5
0 10 6 14 14 10 8 -3 24 -5 36 -6z m87 -7 c0 -10 4 -22 9 -27 10 -12 22 -95
13 -95 -4 0 -20 14 -36 30 -16 17 -35 30 -41 30 -7 0 -20 9 -29 19 -17 19 -17
19 3 14 13 -3 21 -1 21 7 0 15 29 39 48 40 6 0 12 -8 12 -18z m81 -61 c5 -52
8 -65 28 -92 25 -34 18 -36 -25 -10 -29 18 -31 22 -31 81 -1 34 -6 67 -12 73
-6 6 -11 15 -11 21 0 15 50 -56 51 -73z m-1251 12 c0 -20 -28 -15 -40 6 -5 11
-10 25 -10 31 0 15 49 -22 50 -37z m132 31 c-24 -17 -39 -14 -27 5 3 6 16 11
28 11 l21 0 -22 -16z m442 -12 c2 -4 1 -14 -4 -22 -7 -11 -11 -11 -24 -1 -9 8
-16 17 -16 22 0 11 37 12 44 1z m944 -248 c-2 -101 -6 -130 -16 -127 -21 9
-27 54 -8 65 14 8 15 12 4 25 -9 11 -13 58 -15 152 l-2 136 20 -60 c16 -50 19
-82 17 -191z m-1368 142 c0 -2 -8 -10 -17 -17 -16 -13 -17 -12 -4 4 13 16 21
21 21 13z m-415 -78 c-3 -29 -12 -59 -20 -68 -8 -9 -12 -20 -8 -23 3 -4 1 -7
-5 -7 -6 0 -26 -13 -44 -28 -47 -40 -89 -57 -99 -40 -12 19 -11 80 1 73 6 -4
10 8 11 27 0 18 7 49 14 68 12 32 14 33 20 13 6 -20 8 -20 26 -5 16 14 76 39
101 41 4 1 5 -22 3 -51z m475 -7 c0 -6 -4 -13 -10 -16 -5 -3 -10 1 -10 9 0 9
5 16 10 16 6 0 10 -4 10 -9z m1246 -139 c-6 -5 -56 21 -56 29 0 5 13 0 29 -9
16 -9 28 -18 27 -20z m-1273 21 c-7 -2 -21 -2 -30 0 -10 3 -4 5 12 5 17 0 24
-2 18 -5z m-193 -13 c-20 -13 -33 -13 -25 0 3 6 14 10 23 10 15 0 15 -2 2 -10z
m120 -20 c-20 -13 -53 -13 -45 0 3 6 18 10 33 10 21 0 24 -2 12 -10z m-120
-30 c-8 -5 -19 -10 -25 -10 -5 0 -3 5 5 10 8 5 20 10 25 10 6 0 3 -5 -5 -10z
m350 0 c11 -7 4 -10 -27 -10 -24 0 -43 5 -43 10 0 13 50 13 70 0z m-184 -15
c-23 -17 -36 -19 -36 -6 0 5 10 12 23 14 12 2 24 5 27 5 3 1 -4 -5 -14 -13z
m-87 -31 c11 -11 -12 -15 -51 -9 -35 6 -39 9 -23 16 18 7 64 3 74 -7z m-410
-30 c-6 -16 -13 -24 -16 -17 -5 13 16 58 23 50 3 -2 -1 -17 -7 -33z m1741 15
c0 -6 -4 -7 -10 -4 -5 3 -10 11 -10 16 0 6 5 7 10 4 6 -3 10 -11 10 -16z
m-1797 -31 c3 -21 -1 -42 -11 -58 l-16 -25 -7 25 c-4 14 -7 40 -8 58 -1 25 3
32 18 32 13 0 20 -9 24 -32z m902 -7 c7 -13 -57 -25 -84 -16 -12 3 -21 11 -21
16 0 12 97 12 105 0z m-707 -49 c3 -17 -2 -22 -17 -22 -22 0 -25 8 -15 35 9
22 28 14 32 -13z m154 5 c-12 -7 -20 -16 -16 -19 3 -4 -3 -4 -15 -1 -37 9 -25
33 17 33 35 -1 36 -1 14 -13z m-214 -9 c-3 -7 -15 -14 -29 -16 -24 -4 -24 -3
-4 12 24 19 38 20 33 4z m362 2 c11 -7 4 -10 -25 -10 -29 0 -36 3 -25 10 8 5
20 10 25 10 6 0 17 -5 25 -10z m363 -45 c32 -22 0 -18 -48 6 l-40 20 33 -5
c18 -3 43 -13 55 -21z m-200 1 c18 -8 49 -22 70 -30 20 -8 37 -19 37 -24 0
-10 -117 -25 -130 -17 -4 3 -59 -2 -121 -11 -151 -20 -269 -25 -269 -10 1 17
26 47 57 68 20 13 48 18 98 19 39 0 79 4 90 9 32 14 134 11 168 -4z m-548 -50
c0 -42 -1 -45 -48 -71 l-49 -27 7 33 c11 50 36 98 54 102 33 9 36 6 36 -37z
m85 28 c0 -21 -30 -44 -47 -37 -16 6 -17 20 0 38 17 20 47 19 47 -1z m911 -6
c-17 -17 -23 -19 -36 -8 -24 20 -18 30 20 30 l36 0 -20 -22z m191 -21 c30 -35
36 -65 14 -73 -11 -4 -144 29 -168 43 -10 6 33 53 49 53 7 0 13 5 13 11 0 23
65 -1 92 -34z m41 23 c-3 -11 -6 -20 -8 -20 -1 0 -10 9 -20 20 -18 20 -17 20
8 20 20 0 24 -4 20 -20z m-333 -5 c20 -24 6 -28 -15 -5 -10 11 -13 20 -8 20 6
0 16 -7 23 -15z m531 -6 l24 -20 -30 17 c-39 24 -40 24 -28 24 6 0 21 -9 34
-21z m-49 -41 c44 -27 49 -34 31 -36 -38 -6 -108 24 -111 47 -5 30 18 27 80
-11z m343 21 c4 -6 13 -8 19 -6 16 7 27 -2 49 -35 39 -62 12 -57 -63 11 -31
27 -40 40 -28 41 9 0 20 -5 23 -11z m-926 -20 c27 -6 55 -17 62 -25 9 -11 23
-13 54 -8 48 7 114 -17 200 -73 86 -55 95 -63 95 -88 0 -13 9 -30 20 -38 20
-14 20 -14 -5 -31 -14 -9 -25 -21 -25 -27 0 -15 -36 -60 -42 -53 -6 6 -78 -75
-76 -85 4 -14 -14 -51 -22 -46 -5 3 -14 -12 -20 -32 -7 -21 -16 -42 -21 -47
-12 -14 -11 -123 1 -131 7 -4 7 -12 1 -23 -20 -36 63 -200 181 -359 125 -168
253 -267 403 -313 22 -7 48 -16 57 -21 37 -18 142 -29 178 -18 92 29 120 41
114 50 -5 8 3 11 22 8 4 0 10 3 13 8 15 20 60 55 74 57 9 1 26 11 38 22 15 12
20 14 15 4 -4 -8 2 -4 13 9 12 12 19 27 16 31 -11 17 17 21 29 4 8 -10 20 -15
29 -11 13 5 16 19 13 77 -2 44 1 76 9 87 10 13 14 3 24 -62 6 -43 15 -83 20
-89 5 -6 11 -40 14 -76 27 -344 28 -390 19 -480 -5 -53 -5 -100 0 -106 10 -13
-1 -74 -13 -74 -5 0 -9 -10 -9 -23 0 -13 -3 -27 -7 -31 -14 -13 -40 -229 -33
-263 5 -18 5 -31 1 -28 -9 5 -46 -144 -38 -151 3 -3 -3 -30 -13 -60 -11 -30
-17 -54 -15 -54 10 0 -29 -107 -45 -125 -10 -11 -28 -42 -39 -68 -12 -27 -25
-46 -30 -43 -5 3 -17 -11 -26 -32 -10 -20 -31 -56 -47 -80 -17 -24 -31 -53
-33 -65 -2 -12 -5 -30 -7 -39 -5 -23 -98 -139 -107 -134 -9 6 -86 -72 -94 -97
-4 -9 -17 -21 -30 -26 -12 -5 -29 -17 -37 -27 -9 -11 -10 -15 -2 -10 6 4 12 5
12 3 0 -8 -54 -40 -69 -41 -19 -1 -151 -87 -151 -98 0 -4 -7 -8 -16 -8 -9 0
-28 -6 -42 -14 -15 -8 -70 -29 -122 -46 -52 -18 -99 -36 -105 -40 -17 -13 -78
-23 -125 -20 -52 3 -47 3 -165 -3 -49 -2 -111 0 -136 4 -25 4 -68 9 -95 10
-58 1 -306 80 -384 121 -210 111 -416 327 -554 582 -25 44 -50 101 -56 126 -7
25 -27 73 -46 108 -37 69 -83 190 -83 219 1 65 -15 195 -28 233 -9 26 -17 82
-17 132 -1 48 -5 90 -9 94 -4 4 -7 39 -7 79 0 41 -5 76 -12 83 -6 6 -12 38
-12 69 0 96 17 293 26 299 4 3 8 20 8 37 0 18 5 49 11 71 7 27 7 46 0 65 -6
16 -7 39 -2 61 5 19 9 29 10 21 1 -10 4 -11 15 -2 11 9 16 5 26 -21 6 -18 16
-41 21 -51 5 -10 7 -39 3 -66 -6 -44 -4 -49 17 -54 31 -8 39 -1 39 39 0 19 5
34 10 34 7 0 10 33 8 94 -4 95 -2 99 32 70 57 -48 226 -121 255 -110 8 3 17 1
20 -4 4 -6 44 -10 91 -10 47 0 83 4 80 9 -3 5 14 12 39 15 25 4 45 11 45 15 0
4 32 20 70 35 39 15 76 35 83 44 6 10 38 37 71 62 32 24 72 61 89 82 16 21 33
35 38 33 4 -3 23 13 41 36 18 23 42 51 53 63 11 11 33 39 48 62 l27 41 -32 84
c-28 73 -42 94 -108 160 -68 68 -82 78 -145 97 -126 37 -347 55 -510 39 l-51
-5 -2 45 c-1 25 1 50 4 55 3 5 8 43 10 86 3 42 6 77 7 78 1 1 18 4 38 8 l35 6
-3 -82 c-4 -82 7 -127 33 -135 6 -2 22 25 34 61 13 36 28 62 33 59 5 -3 6 4 2
17 -5 17 -4 21 6 15 9 -6 11 -3 6 9 -4 9 -3 15 1 13 4 -3 13 1 20 9 7 8 10 14
7 14 -3 0 -1 9 5 20 6 11 20 20 31 20 11 0 17 5 14 10 -6 10 56 6 93 -6 7 -2
11 0 8 5 -6 9 271 44 284 36 16 -10 165 16 175 31 12 17 11 17 74 3z m874 -59
c5 -18 3 -18 -18 -4 -25 16 -37 38 -28 48 9 9 40 -22 46 -44z m-323 9 c14 -4
54 -14 89 -20 41 -8 82 -25 117 -48 99 -65 59 -68 -127 -11 -72 22 -132 40
-135 40 -2 0 -4 14 -4 31 0 26 3 30 18 24 9 -4 28 -11 42 -16z m-1297 -52 c6
-16 -34 -137 -45 -137 -5 0 -8 24 -8 53 0 67 37 126 53 84z m1792 -69 c8 -12
12 -24 10 -27 -7 -6 -63 48 -77 73 -9 17 -7 17 21 -3 17 -12 37 -32 46 -43z
m-485 10 l25 -10 -23 -9 c-25 -10 -68 6 -76 27 -6 15 21 12 74 -8z m-1726 -33
c-14 -19 -30 -35 -35 -35 -5 0 -9 16 -9 35 0 33 2 35 36 35 l35 0 -27 -35z
m1958 -39 c39 -17 268 -95 297 -101 11 -2 28 -8 39 -14 11 -6 22 -8 25 -5 8 9
84 -139 91 -178 8 -45 -6 -50 -29 -10 -12 21 -14 22 -10 5 6 -21 4 -22 -23
-12 -29 10 -254 123 -348 176 -70 38 -170 99 -228 138 l-29 19 23 6 c35 8 154
-6 192 -24z m-1784 -30 c-2 -22 -9 -46 -16 -51 -7 -6 -13 -28 -13 -50 -1 -32
-8 -46 -37 -72 -20 -18 -37 -33 -39 -33 -5 0 17 42 32 60 19 24 67 178 59 191
-5 8 -3 9 5 4 8 -4 11 -23 9 -49z m1927 34 c3 -6 -1 -7 -9 -4 -18 7 -21 14 -7
14 6 0 13 -4 16 -10z m-420 -54 c11 -8 121 -64 245 -126 124 -62 232 -118 240
-125 8 -7 46 -29 83 -49 78 -43 174 -102 199 -124 16 -14 16 -16 -6 -43 -26
-30 -58 -123 -53 -151 4 -24 45 -66 89 -90 20 -11 39 -30 42 -42 10 -37 6 -80
-9 -100 -8 -11 -15 -27 -15 -35 0 -17 -66 -91 -81 -91 -9 0 -100 -67 -109 -81
-20 -30 -172 -52 -237 -34 -63 18 -171 58 -203 75 -178 94 -438 449 -447 610
-8 144 -10 136 37 188 25 28 54 76 55 89 0 17 122 143 137 143 8 0 22 -6 33
-14z m-1642 -101 l-18 -40 -3 33 c-2 23 3 41 15 54 25 28 29 3 6 -47z m552
-26 c111 -12 219 -36 265 -60 42 -21 119 -99 147 -150 29 -51 48 -141 35 -164
-9 -17 -10 -17 -21 3 -6 12 -24 28 -40 36 -34 18 -170 23 -197 8 -10 -6 -16
-12 -11 -12 4 0 -1 -9 -10 -19 -42 -46 -45 -55 -47 -116 -1 -54 3 -67 22 -88
13 -14 36 -28 50 -32 l27 -7 -27 -23 c-16 -13 -28 -28 -28 -33 0 -12 -182
-109 -233 -123 -55 -16 -220 -12 -272 6 -80 27 -121 48 -182 91 -65 47 -81 73
-65 108 18 37 42 247 42 358 0 98 2 107 20 113 11 3 20 12 20 19 0 7 12 18 26
25 24 11 26 10 18 -6 -11 -22 -10 -155 1 -275 l8 -86 31 -5 c17 -2 31 -4 32
-3 0 0 -3 41 -7 90 -10 121 21 307 55 331 9 7 40 13 68 13 27 1 53 3 56 6 8 8
117 6 217 -5z m1933 -82 c58 -85 104 -186 98 -213 -6 -21 -9 -24 -21 -14 -8 7
-15 20 -15 29 0 9 -11 33 -25 53 -14 20 -25 39 -25 42 0 3 -13 27 -29 55 -27
44 -35 71 -32 94 2 14 20 -3 49 -46z m-2637 -280 c-18 -18 -21 -19 -21 -5 0
22 33 55 38 38 3 -7 -5 -22 -17 -33z m2768 17 c3 -16 1 -17 -13 -5 -19 16 -21
34 -3 29 6 -3 14 -13 16 -24z m-174 -14 c-3 -5 -11 -10 -16 -10 -6 0 -7 5 -4
10 3 6 11 10 16 10 6 0 7 -4 4 -10z m-2601 -64 c-3 -14 -10 -26 -15 -26 -14 0
-11 48 4 53 17 6 19 3 11 -27z m2638 -48 c-7 -7 -12 -8 -12 -2 0 6 3 14 7 17
3 4 9 5 12 2 2 -3 -1 -11 -7 -17z m-1722 -78 c8 -5 10 -10 4 -10 -7 0 -22 9
-35 21 -19 16 -20 18 -4 10 11 -6 27 -15 35 -21z"/>
<path d="M2229 2482 c-16 -9 -30 -30 -37 -56 -9 -35 -8 -45 10 -73 18 -31 23
-33 78 -33 81 0 90 5 90 50 0 72 -10 96 -46 114 -42 19 -61 19 -95 -2z m96
-122 c3 -5 1 -10 -4 -10 -6 0 -11 5 -11 10 0 6 2 10 4 10 3 0 8 -4 11 -10z"/>
<path d="M2702 2423 c-23 -9 -82 -95 -82 -120 0 -14 13 -37 29 -54 25 -24 38
-29 79 -29 47 0 52 2 73 37 14 23 25 58 27 93 4 52 3 57 -22 68 -27 12 -80 15
-104 5z"/>
<path d="M2455 1485 c-33 -14 -78 -33 -100 -42 -48 -19 -95 -62 -137 -122 -17
-24 -40 -53 -50 -63 -11 -11 -17 -26 -14 -35 3 -8 6 -19 6 -24 0 -5 6 -9 14
-9 7 0 19 -7 26 -15 17 -20 41 -19 46 3 6 19 66 62 88 62 16 0 39 24 30 32 -3
3 1 6 8 5 7 -1 49 17 93 38 129 64 219 55 312 -29 22 -19 52 -54 68 -76 34
-49 60 -59 87 -32 19 19 19 21 3 52 -60 115 -136 208 -203 248 -38 21 -60 27
-131 29 -75 3 -94 0 -146 -22z m100 -59 c-48 -7 -101 -23 -133 -40 -63 -32
-80 -29 -25 5 48 30 113 47 183 47 53 0 51 -1 -25 -12z"/>
<path d="M3565 3462 c11 -9 28 -28 38 -42 9 -13 17 -19 17 -13 0 16 -50 73
-63 73 -7 -1 -3 -8 8 -18z"/>
<path d="M3967 3638 c8 -72 13 -73 13 -5 0 32 -4 57 -10 57 -5 0 -7 -22 -3
-52z"/>
<path d="M1017 2923 c-9 -16 -23 -58 -32 -93 -9 -35 -23 -77 -32 -93 -8 -16
-12 -31 -9 -34 3 -3 -3 -18 -13 -32 -10 -14 -35 -59 -56 -99 -33 -62 -36 -75
-26 -95 l11 -22 -6 24 c-5 17 -3 21 6 16 9 -5 11 -4 6 3 -7 12 29 90 72 154
14 21 22 41 19 44 -3 3 3 21 14 40 10 19 19 42 19 52 0 9 11 49 24 87 26 75
27 95 3 48z"/>
</g>
</svg>
